<?xml version="1.0" encoding="utf-8"?>
<!-- Svg Vector Icons : http://www.onlinewebfonts.com/icon -->
<!DOCTYPE svg PUBLIC "-//W3C//DTD SVG 1.1//EN" "http://www.w3.org/Graphics/SVG/1.1/DTD/svg11.dtd">
<svg version="1.1" xmlns="http://www.w3.org/2000/svg" xmlns:xlink="http://www.w3.org/1999/xlink" x="0px" y="0px" viewBox="0 0 1000 1000" enable-background="new 0 0 1000 1000" xml:space="preserve" fill="#b8b6b4">
<metadata> Svg Vector Icons : http://www.onlinewebfonts.com/icon </metadata>
<g><path d="M395.5,823.1c0,38.6,31.3,69.9,69.9,69.9c38.6,0,69.9-31.3,69.9-69.9s-31.3-69.9-69.9-69.9C426.9,753.1,395.5,784.4,395.5,823.1z"/><path d="M729.9,823.1c0,38.6,31.3,69.9,69.9,69.9c38.6,0,69.9-31.3,69.9-69.9s-31.3-69.9-69.9-69.9C761.2,753.1,729.9,784.4,729.9,823.1z"/><path d="M881.9,624.4H395L227.4,128.8c-4.9-14.5-18.4-21.8-33.7-21.8H45.5C25.9,107,10,120.8,10,140.4s15.9,33.4,35.5,33.4h122.6l167.6,495.7c4.9,14.4,18.4,21.8,33.7,21.8h512.5c19.7,0,35.6-13.8,35.6-33.5C917.5,638.3,901.6,624.4,881.9,624.4z"/><path d="M958.1,238.8l-602.8-52.5c-19.5-1.7-30.3,12.1-24.1,30.6l105.4,315.3c6.2,18.6,27.4,36.2,46.9,36.2h440c19.6,0,37.3-18.4,39.4-37.8l26.9-252C991.9,259,977.7,240.4,958.1,238.8z"/></g>
</svg>