<?xml version="1.0" encoding="utf-8"?>
<!-- Svg Vector Icons : http://www.onlinewebfonts.com/icon -->
<!DOCTYPE svg PUBLIC "-//W3C//DTD SVG 1.1//EN" "http://www.w3.org/Graphics/SVG/1.1/DTD/svg11.dtd">
<svg version="1.1" xmlns="http://www.w3.org/2000/svg" xmlns:xlink="http://www.w3.org/1999/xlink" x="0px" y="0px" viewBox="0 0 1000 1000" enable-background="new 0 0 1000 1000" xml:space="preserve" fill="#b8b6b4">
<metadata> Svg Vector Icons : http://www.onlinewebfonts.com/icon </metadata>
<g><path d="M500,990C229.8,990,10,770.1,10,500C10,229.8,229.8,10,500,10c270.2,0,490,219.8,490,490C990,770.1,770.1,990,500,990z M501.3,86.8c-229.9,0-417.1,187.1-417.1,417c0,230,187.2,417.1,417.1,417.1c230,0,417-187.2,417-417.1C918.3,273.8,731.3,86.8,501.3,86.8z"/><path d="M783.9,379.8c-35-35-77.3-52.6-126.9-52.6H343c-49.5,0-91.9,17.6-126.9,52.6c-35,34.9-52.5,77.1-52.5,126.6c0,49.4,17.5,91.6,52.5,126.7c35,35,77.4,52.4,126.9,52.4c44.9,0,84.3-14.9,118.4-44.7h77.1c34.1,29.9,73.6,44.7,118.4,44.7c49.6,0,91.9-17.4,126.9-52.4c35-35,52.5-77.2,52.5-126.7C836.5,456.9,818.9,414.7,783.9,379.8z M455.1,528.8c0,3.3-1,6-3.1,8.1c-2.1,2.1-4.8,3.1-8,3.1h-67.3v67.2c0,3.3-1,5.9-3.1,8c-2.2,2.2-4.8,3.2-8,3.2h-44.9c-3.3,0-6-1-8.2-3.2c-2-2.1-3.1-4.7-3.1-8v-67.2h-67.2c-3.4,0-6.1-1-8.2-3.1c-2-2.1-3.1-4.8-3.1-8.1V484c0-3.2,1.1-5.9,3.1-8c2-2.1,4.8-3.1,8.2-3.1h67.2v-67.1c0-3.3,1.1-6,3.1-8.1c2.2-2.1,4.9-3.1,8.2-3.1h44.9c3.2,0,5.9,1,8,3.1c2.2,2.1,3.1,4.7,3.1,8.1v67.1H444c3.2,0,5.9,1,8,3.1c2.1,2.1,3.1,4.8,3.1,8V528.8L455.1,528.8z M643.9,582.7c-8.9,8.8-19.4,13.2-31.8,13.2c-12.4,0-22.9-4.4-31.6-13.2c-8.9-8.8-13.2-19.3-13.2-31.6c0-12.4,4.3-22.9,13.2-31.5c8.7-8.8,19.3-13.2,31.6-13.2c12.4,0,22.9,4.4,31.8,13.2c8.8,8.6,13.1,19.2,13.1,31.5C657,563.5,652.7,574,643.9,582.7z M733.6,493.3c-8.8,8.6-19.3,13-31.7,13c-12.5,0-23-4.4-31.8-13c-8.7-8.8-13.1-19.3-13.1-31.7c0-12.4,4.4-22.9,13.1-31.7c8.8-8.8,19.3-13.2,31.8-13.2c12.4,0,22.9,4.4,31.7,13.2c8.8,8.8,13.1,19.3,13.1,31.7C746.7,474,742.3,484.6,733.6,493.3z"/></g>
</svg>